<svg
		xmlns="http://www.w3.org/2000/svg"
		width="512"
		height="512"
		version="1.1"
		viewBox="0 0 512 512"
>
	<circle cx="289.681" cy="382.756" r="18.968" fill="#D8EAEF"></circle>
	<circle cx="128.309" cy="472.381" r="18.968" fill="#D8EAEF"></circle>
	<circle cx="241.611" cy="458.785" r="18.968" fill="#D8EAEF"></circle>
	<circle cx="354.588" cy="447.662" r="18.969" fill="#D8EAEF"></circle>
	<path
			fill="#D8EAEF"
			d="M349.959 151.049c-5.997-62.967-61.931-112.316-130.038-112.316-72.114 0-130.567 55.305-130.567 123.543 0 6.617.551 13.117 1.61 19.445-45.345 5.346-80.561 44.914-80.561 92.914 0 51.639 40.775 93.514 91.075 93.514H131.5l102.25-37 140.433 37h61.153c36.605 0 66.261-26.482 66.261-59.162 0-29.539-24.246-54.033-55.944-58.449 0-51.656-40.582-99.615-90.882-99.615a89.998 89.998 0 00-4.812.126"
	></path>
	<path
			fill="#FFF"
			d="M301.095 151.049c-5.135-62.967-52.467-113.32-110.625-109.16-36.581 2.615-101.116 52.148-101.116 120.386 0 6.617 1.61 19.445 1.61 19.445-42.076 3.783-80.561 44.914-80.561 92.914 0 51.639 34.907 93.514 77.968 93.514h285.811c31.34 0 56.727-26.482 56.727-59.162 0-29.539-20.756-54.033-47.893-58.449 0-51.656-34.743-99.615-77.805-99.615-1.38 0-2.763.043-4.116.127-22.808 1.434-43.016 14.605-56.507 34.576"
	></path>
	<path
			fill="none"
			stroke="#354F65"
			d="M339.5 368.148h95.836c36.605 0 66.261-26.482 66.261-59.162 0-29.539-24.246-54.033-55.944-58.449h0c0-51.656-45.394-99.488-95.693-99.488-1.614 0 1.582-.084 0 0-26.641 1.434-50.246 14.605-66.005 34.576"
	></path>
	<path
			fill="none"
			stroke="#354F65"
			d="M349.959 151.049c-5.997-62.967-61.931-112.316-130.038-112.316-72.114 0-130.567 55.305-130.567 123.543 0 6.617.551 13.117 1.61 19.445h0c-45.345 5.346-80.561 44.914-80.561 92.914 0 51.639 40.775 93.514 91.075 93.514H131.5"
	></path>
	<circle cx="177.777" cy="396.35" r="18.968" fill="#D8EAEF"></circle>
	<g fill="none" stroke="#354F65">
		<path d="M143.217 487.289L113.4 457.473"></path>
		<path d="M107.944 477.838L148.674 466.926"></path>
		<path d="M133.766 452.018L122.853 492.746"></path>
	</g>
	<g fill="none" stroke="#354F65">
		<path d="M255.121 473.695L225.305 443.879"></path>
		<path d="M219.849 464.244L260.579 453.33"></path>
		<path d="M245.67 438.422L234.757 479.152"></path>
	</g>
	<g fill="none" stroke="#354F65">
		<path d="M192.685 411.258L162.868 381.441"></path>
		<path d="M157.412 401.807L198.143 390.895"></path>
		<path d="M183.233 375.986L172.32 416.715"></path>
	</g>
	<g fill="none" stroke="#354F65">
		<path d="M304.589 397.664L274.772 367.848"></path>
		<path d="M269.316 388.213L310.047 377.299"></path>
		<path d="M295.138 362.391L284.225 403.121"></path>
	</g>
	<g fill="none" stroke="#354F65">
		<path d="M369.496 462.57L339.68 432.754"></path>
		<path d="M334.223 453.119L374.953 442.207"></path>
		<path d="M360.045 427.297L349.132 468.027"></path>
	</g>
</svg>
